<?xml version="1.0" encoding="UTF-8" standalone="no"?>
<!-- Created with Inkscape (http://www.inkscape.org/) -->

<svg
   width="210.44057mm"
   height="208.95345mm"
   viewBox="0 0 210.44057 208.95345"
   version="1.1"
   id="svg1"
   xml:space="preserve"
   xmlns="http://www.w3.org/2000/svg"
   xmlns:svg="http://www.w3.org/2000/svg"><defs
     id="defs1" /><g
     id="layer1"
     transform="translate(-276.42833,90.73393)"><path
       style="fill:#388cd5"
       d="m 319.01345,117.97101 c -8.71673,-0.66798 -18.3908,-4.55814 -25.42258,-10.22297 -8.30298,-6.68892 -13.75178,-15.828301 -16.3279,-27.387111 l -0.72347,-3.24614 -0.0884,-61.7802 c -0.061,-42.62441 -4.8e-4,-62.64845 0.19508,-64.580423 1.59233,-15.73125 11.64378,-30.049381 25.6622,-36.555381 3.36114,-1.55991 5.34762,-2.26288 9.20751,-3.25831 6.93579,-1.78868 4.68039,-1.7377 72.16555,-1.63108 67.02585,0.10591 61.78302,-0.0316 68.64894,1.80071 8.32227,2.22099 15.30147,6.08874 20.86473,11.56284 6.96992,6.858221 10.76329,13.943611 13.06282,24.399151 l 0.611,2.77812 v 63.235413 c 0,50.34617 -0.0694,63.63989 -0.34044,65.21979 -1.28764,7.50535 -4.06858,14.35215 -8.22107,20.24062 -0.82096,1.16417 -3.15953,3.794201 -5.19682,5.844521 -2.84333,2.86151 -4.41259,4.19636 -6.75249,5.74382 -6.53293,4.32046 -14.65733,7.15662 -22.48526,7.84942 -3.64149,0.32228 -120.64337,0.3103 -124.85945,-0.0128 z m 18.86501,-22.048501 c 2.54592,-0.76621 4.30718,-2.89475 4.57964,-5.53467 0.12133,-1.17555 0.0292,-1.69413 -0.50768,-2.85674 -1.04589,-2.26504 -2.41915,-3.39248 -4.77533,-3.92051 -3.56355,-0.79861 -7.3363,2.42304 -7.3363,6.26465 0,1.6936 0.4325,2.81699 1.59367,4.1395 1.73071,1.97117 4.00188,2.64335 6.446,1.90777 z m 93.00501,-2.12545 c 1.25262,-0.64775 2.35442,-2.12545 2.54818,-3.41753 0.23645,-1.57678 -0.008,-2.532 -0.93597,-3.65782 -1.60605,-1.94841 1.67841,-1.80236 -40.38751,-1.7959 -36.2865,0.006 -37.83872,0.0255 -38.87993,0.49834 -2.72807,1.23894 -3.47991,4.84042 -1.50134,7.19181 1.37934,1.63926 -1.12597,1.54281 40.36825,1.5541 32.72013,0.009 38.15078,-0.0433 38.78832,-0.373 z m -92.82789,-19.59787 c 1.82654,-0.64444 2.88175,-1.62537 3.75434,-3.49004 0.9429,-2.01494 0.88794,-3.32768 -0.22492,-5.37238 -1.30674,-2.4009 -4.56473,-3.9273 -6.89256,-3.22922 -4.03178,1.20906 -5.96682,5.31831 -4.20251,8.92444 1.42088,2.90417 4.57213,4.22337 7.56565,3.1672 z m 93.03882,-2.0046 c 3.28486,-1.59017 3.34668,-6.385 0.10433,-8.09194 l -1.1661,-0.6139 h -37.97485 -37.97484 l -1.15933,0.56122 c -1.96195,0.94977 -3.01102,3.16622 -2.46259,5.20294 0.37739,1.40152 1.09987,2.26467 2.45849,2.93717 l 1.12865,0.55867 37.95031,2.1e-4 37.95032,2.1e-4 z m -92.77424,-19.42665 c 1.70792,-0.60259 2.88034,-1.62966 3.58306,-3.13885 2.20362,-4.73261 -1.70957,-9.99736 -6.65919,-8.95916 -4.84084,1.01537 -6.95952,6.5312 -3.88734,10.12036 1.783,2.08303 4.48767,2.85116 6.96347,1.97765 z m 92.74046,-2.21541 c 1.43862,-0.65341 2.69884,-2.22194 2.9085,-3.62007 0.32907,-2.1944 -1.29526,-4.43215 -3.72097,-5.12617 -0.77823,-0.22266 -11.03677,-0.282 -38.76145,-0.22423 l -37.70312,0.0786 -1.18263,0.66221 c -2.70828,1.51649 -3.22017,5.31177 -0.99322,7.36399 1.51785,1.39876 -0.16253,1.34284 40.54042,1.34908 36.24679,0.006 37.88064,-0.0147 38.91247,-0.48338 z m -9.8083,-24.32973 c 3.07673,-1.03189 4.88031,-2.14129 7.16094,-4.40477 1.58157,-1.56969 2.41453,-2.66565 3.2183,-4.23448 2.06587,-4.03228 1.94032,-1.43246 1.86176,-38.55058 l -0.0702,-33.151503 -0.86706,-2.15152 c -2.18952,-5.43308 -6.20066,-8.97582 -11.83294,-10.45115 -1.75356,-0.45933 -3.82246,-0.48513 -38.89375,-0.48513 -35.16148,0 -37.13712,0.0248 -38.92242,0.48861 -5.81156,1.50981 -10.19734,5.60899 -12.19241,11.39564 l -0.87105,2.52647 -0.002,32.416773 c -0.002,31.74264 0.009,32.45699 0.53349,34.35049 1.73287,6.25324 6.33657,10.8525 12.48575,12.47367 1.86199,0.49089 3.19244,0.50627 39.2336,0.45338 l 37.30625,-0.0547 z m -76.19999,-6.76182 c -2.92144,-0.92784 -5.73151,-3.20498 -6.9835,-5.65909 -1.52759,-2.99433 -1.46284,-1.63912 -1.56403,-32.73084 -0.10287,-31.605943 -0.0982,-31.718273 1.44113,-34.795233 1.15843,-2.31557 3.66498,-4.71996 5.83189,-5.59422 l 1.53909,-0.62096 h 36.51808 36.51809 l 1.80167,0.88697 c 2.14955,1.05823 4.38024,3.19011 5.359,5.12161 1.39229,2.74755 1.4079,3.11254 1.41788,33.156693 0.006,18.0365601 -0.0892,28.5749701 -0.27112,30.0302001 -0.61547,4.9220999 -3.28659,8.4156599 -7.59792,9.9373399 l -1.77902,0.62789 -35.58646,-0.0121 c -28.01474,-0.01 -35.81163,-0.0836 -36.64478,-0.34825 z M 375.56717,3.6734091 c 1.4287,-0.71394 3.84844,-3.05625005 19.81189,-19.1779601 10.2609,-10.36263 18.40707,-18.798711 18.69542,-19.360768 0.77029,-1.501453 0.88512,-4.197512 0.24055,-5.648231 -1.16303,-2.617649 -3.31887,-4.193852 -6.03421,-4.411813 -1.38733,-0.111362 -1.89776,-0.02228 -3.20295,0.558978 -1.39686,0.622079 -3.11057,2.264467 -17.08102,16.370104 l -15.52838,15.67865 -6.06455,-6.01279 c -6.73988,-6.68234 -7.68143,-7.3479 -10.37138,-7.33121 -2.75175,0.0171 -4.8924,1.30334 -6.21869,3.73666 -1.00584,1.8454 -1.06583,4.23748 -0.15143,6.03873 0.65987,1.29984 17.17698,18.1094301 18.77439,19.1068301 2.42787,1.51592 4.71254,1.66101 7.13036,0.45282 z"
       id="path8" /></g></svg>
